<?xml version="1.0" standalone="no"?>
<svg xmlns:xlink="http://www.w3.org/1999/xlink" id="wave" style="transform:rotate(0deg); transition: 0.3s" viewBox="0 0 1440 180" version="1.1" xmlns="http://www.w3.org/2000/svg"><defs><linearGradient id="sw-gradient-0" x1="0" x2="0" y1="1" y2="0"><stop stop-color="rgba(22, 163, 74, 1)" offset="0%"/><stop stop-color="rgba(94.545, 166.526, 121.091, 1)" offset="100%"/></linearGradient></defs><path style="transform:translate(0, 0px); opacity:1" fill="url(#sw-gradient-0)" d="M0,90L34.3,81C68.6,72,137,54,206,51C274.3,48,343,60,411,60C480,60,549,48,617,54C685.7,60,754,84,823,84C891.4,84,960,60,1029,51C1097.1,42,1166,48,1234,48C1302.9,48,1371,42,1440,33C1508.6,24,1577,12,1646,6C1714.3,0,1783,0,1851,18C1920,36,1989,72,2057,75C2125.7,78,2194,48,2263,54C2331.4,60,2400,102,2469,123C2537.1,144,2606,144,2674,138C2742.9,132,2811,120,2880,99C2948.6,78,3017,48,3086,48C3154.3,48,3223,78,3291,75C3360,72,3429,36,3497,36C3565.7,36,3634,72,3703,75C3771.4,78,3840,48,3909,30C3977.1,12,4046,6,4114,15C4182.9,24,4251,48,4320,69C4388.6,90,4457,108,4526,102C4594.3,96,4663,66,4731,57C4800,48,4869,60,4903,66L4937.1,72L4937.1,180L4902.9,180C4868.6,180,4800,180,4731,180C4662.9,180,4594,180,4526,180C4457.1,180,4389,180,4320,180C4251.4,180,4183,180,4114,180C4045.7,180,3977,180,3909,180C3840,180,3771,180,3703,180C3634.3,180,3566,180,3497,180C3428.6,180,3360,180,3291,180C3222.9,180,3154,180,3086,180C3017.1,180,2949,180,2880,180C2811.4,180,2743,180,2674,180C2605.7,180,2537,180,2469,180C2400,180,2331,180,2263,180C2194.3,180,2126,180,2057,180C1988.6,180,1920,180,1851,180C1782.9,180,1714,180,1646,180C1577.1,180,1509,180,1440,180C1371.4,180,1303,180,1234,180C1165.7,180,1097,180,1029,180C960,180,891,180,823,180C754.3,180,686,180,617,180C548.6,180,480,180,411,180C342.9,180,274,180,206,180C137.1,180,69,180,34,180L0,180Z"/><defs><linearGradient id="sw-gradient-1" x1="0" x2="0" y1="1" y2="0"><stop stop-color="rgba(89.399, 100.499, 93.493, 1)" offset="0%"/><stop stop-color="rgba(22, 163, 74, 1)" offset="100%"/></linearGradient></defs><path style="transform:translate(0, 50px); opacity:0.9" fill="url(#sw-gradient-1)" d="M0,72L34.3,72C68.6,72,137,72,206,69C274.3,66,343,60,411,54C480,48,549,42,617,45C685.7,48,754,60,823,72C891.4,84,960,96,1029,108C1097.1,120,1166,132,1234,114C1302.9,96,1371,48,1440,51C1508.6,54,1577,108,1646,123C1714.3,138,1783,114,1851,102C1920,90,1989,90,2057,81C2125.7,72,2194,54,2263,66C2331.4,78,2400,120,2469,132C2537.1,144,2606,126,2674,114C2742.9,102,2811,96,2880,93C2948.6,90,3017,90,3086,87C3154.3,84,3223,78,3291,63C3360,48,3429,24,3497,36C3565.7,48,3634,96,3703,105C3771.4,114,3840,84,3909,87C3977.1,90,4046,126,4114,132C4182.9,138,4251,114,4320,114C4388.6,114,4457,138,4526,147C4594.3,156,4663,150,4731,138C4800,126,4869,108,4903,99L4937.1,90L4937.1,180L4902.9,180C4868.6,180,4800,180,4731,180C4662.9,180,4594,180,4526,180C4457.1,180,4389,180,4320,180C4251.4,180,4183,180,4114,180C4045.7,180,3977,180,3909,180C3840,180,3771,180,3703,180C3634.3,180,3566,180,3497,180C3428.6,180,3360,180,3291,180C3222.9,180,3154,180,3086,180C3017.1,180,2949,180,2880,180C2811.4,180,2743,180,2674,180C2605.7,180,2537,180,2469,180C2400,180,2331,180,2263,180C2194.3,180,2126,180,2057,180C1988.6,180,1920,180,1851,180C1782.9,180,1714,180,1646,180C1577.1,180,1509,180,1440,180C1371.4,180,1303,180,1234,180C1165.7,180,1097,180,1029,180C960,180,891,180,823,180C754.3,180,686,180,617,180C548.6,180,480,180,411,180C342.9,180,274,180,206,180C137.1,180,69,180,34,180L0,180Z"/></svg>